<svg width="15" height="15" viewBox="0 0 15 15" fill="none" xmlns="http://www.w3.org/2000/svg">
<path d="M12.2147 4.1928C12.1866 4.1381 12.1459 4.0909 12.0961 4.0548C12.0462 4.0188 11.9885 3.9951 11.9277 3.9856C11.867 3.976 11.8048 3.981 11.7463 4.0001C11.6878 4.0191 11.6347 4.0517 11.5912 4.0952L10.0912 5.5962C10.0175 5.6687 9.9183 5.7094 9.8149 5.7094C9.7115 5.7094 9.6123 5.6687 9.5387 5.5962L8.8902 4.9468C8.854 4.9105 8.8252 4.8674 8.8055 4.82C8.7859 4.7726 8.7758 4.7218 8.7758 4.6705C8.7758 4.6192 8.7859 4.5684 8.8055 4.521C8.8252 4.4736 8.854 4.4305 8.8902 4.3943L10.3839 2.9004C10.4287 2.8556 10.4619 2.8006 10.4807 2.7402C10.4995 2.6797 10.5033 2.6156 10.4918 2.5533C10.4804 2.491 10.4539 2.4325 10.4148 2.3827C10.3756 2.3329 10.325 2.2934 10.2672 2.2676C9.139 1.7632 7.7308 2.0264 6.8429 2.9077C6.0885 3.6567 5.8636 4.8271 6.2264 6.1189C6.246 6.1878 6.2461 6.2607 6.2267 6.3297C6.2074 6.3986 6.1693 6.4608 6.1168 6.5095L2.0523 10.2217C1.894 10.3638 1.7663 10.5368 1.677 10.7299C1.5877 10.9231 1.5387 11.1324 1.5329 11.3451C1.5272 11.5578 1.5648 11.7695 1.6436 11.9672C1.7223 12.1648 1.8405 12.3444 1.991 12.4949C2.1414 12.6454 2.3209 12.7637 2.5186 12.8425C2.7162 12.9214 2.9279 12.9591 3.1406 12.9535C3.3533 12.9478 3.5627 12.8989 3.7558 12.8097C3.949 12.7205 4.122 12.5928 4.2643 12.4345L8.0162 8.3611C8.0642 8.3092 8.1254 8.2714 8.1932 8.2517C8.261 8.2321 8.333 8.2313 8.4012 8.2495C8.769 8.3503 9.1483 8.4025 9.5296 8.405C10.3451 8.405 11.0606 8.1411 11.5768 7.6325C12.5326 6.6909 12.6783 5.0937 12.2147 4.1928ZM3.18 12.1672C3.0192 12.1848 2.857 12.152 2.7156 12.0734C2.5742 11.9948 2.4608 11.8742 2.3908 11.7284C2.3209 11.5825 2.2979 11.4186 2.3251 11.2591C2.3524 11.0997 2.4284 10.9526 2.5427 10.8382C2.6571 10.7239 2.8041 10.6478 2.9636 10.6205C3.123 10.5932 3.287 10.6161 3.4328 10.686C3.5787 10.7559 3.6993 10.8693 3.7779 11.0107C3.8566 11.152 3.8894 11.3143 3.8719 11.4751C3.8527 11.652 3.7736 11.817 3.6478 11.9429C3.522 12.0688 3.3569 12.1479 3.18 12.1672Z" fill="currentColor"/>
</svg>
